<svg width="144" height="36" viewBox="0 0 144 36" fill="none" xmlns="http://www.w3.org/2000/svg">
<path d="M76 0.499991H104L101 27L76 0.499991Z" fill="#72E9BF"/>
<path d="M28.15 31.21C27.7 31.6 27.07 31.99 26.26 32.38C25.45 32.74 24.55 33.07 23.56 33.37C22.6 33.67 21.595 33.91 20.545 34.09C19.525 34.27 18.565 34.36 17.665 34.36C15.055 34.36 12.7 33.955 10.6 33.145C8.53 32.335 6.745 31.21 5.245 29.77C3.775 28.33 2.635 26.635 1.825 24.685C1.045 22.735 0.654999 20.62 0.654999 18.34C0.654999 15.64 1.09 13.225 1.96 11.095C2.86 8.93499 4.075 7.11999 5.605 5.64999C7.165 4.14999 8.95 3.02499 10.96 2.27499C12.97 1.49499 15.1 1.10499 17.35 1.10499C19.24 1.10499 20.995 1.32999 22.615 1.77999C24.235 2.22999 25.66 2.79999 26.89 3.48999L25.405 7.49499C24.805 7.13499 24.055 6.80499 23.155 6.50499C22.285 6.20499 21.385 5.96499 20.455 5.78499C19.525 5.57499 18.655 5.46999 17.845 5.46999C15.925 5.46999 14.185 5.76999 12.625 6.36999C11.065 6.93999 9.73 7.77999 8.62 8.88999C7.51 9.96999 6.655 11.29 6.055 12.85C5.455 14.38 5.155 16.105 5.155 18.025C5.155 19.795 5.455 21.415 6.055 22.885C6.655 24.355 7.51 25.63 8.62 26.71C9.73 27.76 11.05 28.585 12.58 29.185C14.14 29.755 15.85 30.04 17.71 30.04C18.82 30.04 19.915 29.935 20.995 29.725C22.075 29.485 23.005 29.155 23.785 28.735V22.255H17.305V18.07H28.15V31.21Z" fill="black"/>
<path d="M41.4239 1.46499H62.5739V5.64999H45.7889V15.55H60.7739V19.735H45.7889V29.815H63.2039V34H41.4239V1.46499Z" fill="black"/>
<path d="M103.899 35.035L78.7444 9.51999L80 10.7935L80.0944 34H75.7294V0.474988H75.9544L100.839 26.08L99.8044 25.015V0.499991H104L104.034 35.035H103.899Z" fill="black"/>
<path d="M115.101 34L129.321 0.11499H129.591L143.766 34H138.771L128.151 6.95499L129.25 9.75443L119.376 34H115.101ZM124.414 21.67H133.929L135.413 25.45H122.87L124.414 21.67Z" fill="black"/>
</svg>
